<svg width="182" height="53" viewBox="0 0 182 53" fill="none" xmlns="http://www.w3.org/2000/svg">
<path d="M58.9835 1.95957L69.861 3.59687L63.3401 46.9184C63.0387 48.9209 61.171 50.2999 59.1685 49.9985V49.9985C55.1636 49.3956 52.4056 45.6603 53.0084 41.6553L58.9835 1.95957Z" fill="#00093C"/>
<path d="M0 0L70 0V2C70 6.97056 65.9706 11 61 11H10C4.47715 11 0 6.52285 0 1L0 0Z" fill="#00093C"/>
<path d="M19.4543 50.2695C19.4543 44.1944 24.3792 39.2695 30.4543 39.2695L63.4543 39.2695L63.4543 45.2695C63.4543 48.0309 61.2158 50.2695 58.4543 50.2695L19.4543 50.2695V50.2695Z" fill="#00093C"/>
<path d="M22.6735 26L33.4714 28.0989L30.8968 41.3442C29.7376 47.3077 23.9635 51.2024 18 50.0432V50.0432L22.6735 26Z" fill="#00093C"/>
<path d="M6 30C6 23.9249 10.9249 19 17 19H45.4341V30H6V30Z" fill="#00093C"/>
<path fill-rule="evenodd" clip-rule="evenodd" d="M126.829 2.12889C120.587 1.18924 114.764 5.48818 113.825 11.7308L108 50.4275H119.559L126.829 2.12889Z" fill="#00093C"/>
<path fill-rule="evenodd" clip-rule="evenodd" d="M134.605 2L127 51H138.47L146.075 2H134.605Z" fill="#00093C"/>
<path fill-rule="evenodd" clip-rule="evenodd" d="M170.45 2L163 50H174.47L181.92 2H170.45Z" fill="#00093C"/>
<path fill-rule="evenodd" clip-rule="evenodd" d="M138.299 51H134.899L129 45.7463L170.411 2L178.154 8.89644L138.299 51Z" fill="#00093C"/>
<path d="M78 6C78 3.23858 80.2386 1 83 1H127V1C127 7.07513 122.075 12 116 12H78V6Z" fill="#00093C"/>
<path fill-rule="evenodd" clip-rule="evenodd" d="M76.4003 6.93316C76.8936 3.65636 79.9498 1.39984 83.2266 1.89307L88.1709 2.63729L81.0418 50H81H73H69.9178L76.4003 6.93316Z" fill="#00093C"/>
</svg>
