<svg xmlns="http://www.w3.org/2000/svg">
	<symbol id="wallet" viewBox="0 0 55 55" fill="none"><path d="M49.7414 14.0714H10.2813c-.9151 0-1.6563-.7511-1.6563-1.6785 0-.9275.7412-1.6786 1.6563-1.6786h39.7499c.9151 0 1.6563-.7512 1.6563-1.6786C51.6875 6.2545 49.463 4 46.7188 4H8.625C4.9657 4 2 7.0057 2 10.7143v33.5714C2 47.9943 4.9657 51 8.625 51h41.1164C52.6419 51 55 48.7413 55 45.9643V19.1071c0-2.7769-2.3581-5.0357-5.2586-5.0357Zm-4.6789 21.8215c-1.8291 0-3.3125-1.5034-3.3125-3.3572 0-1.8538 1.4834-3.3571 3.3125-3.3571s3.3125 1.5033 3.3125 3.3571-1.4834 3.3572-3.3125 3.3572Z" fill="currentColor"/></symbol>
	<symbol id="bread" viewBox="0 0 75 75" fill="none"><path d="M56.3219 46.0298c.8789.8297 2.5145 1.0249 4.9068.5857 2.3924-.4393 4.5894-1.3909 6.5912-2.855 2.4412 3.8554 4.2599 7.479 5.4561 10.8709 1.1961 3.3918 1.7699 6.3077 1.7211 8.7479-.0487 2.4401-.3782 4.5021-.9886 6.1858s-1.4771 3.0624-2.5999 4.136c-2.2459 2.2938-5.7978 1.5495-10.6558-2.2327-4.8579-3.7822-12.9017-11.3101-24.1312-22.5836l-5.273-5.2707c-11.7665-11.7615-18.8215-18.8868-21.165-21.3757C3.4947 14.9667.1015 9.7936.0039 6.719-.045 5.499.37 4.4497 1.2489 3.5712 2.2742 2.5463 3.5679 1.729 5.1303 1.119 6.6927.5089 8.5846.1428 10.8061.0208c2.2215-.122 4.8824.2928 7.9827 1.2445 3.1003.9516 6.4081 2.428 9.9234 4.4288-.3906.5369-.6592.8785-.8056 1.025-1.2694 1.464-2.7464 2.7817-4.4308 3.953-1.6844 1.1712-3.2345 2.0253-4.6504 2.5621.537.4392 1.3548.6955 2.4534.7687 1.0985.0732 2.2825-.0488 3.5519-.3661 1.2694-.3172 2.5754-.854 3.9181-1.6105 1.3426-.7564 2.5022-1.6715 3.4787-2.7451 0-.0488.2197-.366.6591-.9517 4.5406 3.0258 9.3497 6.9056 14.4274 11.6395-.0488 0-.1465.1098-.293.3294-.1464.2197-.2685.3783-.3661.4759-1.3183 1.4641-2.8074 2.7817-4.4674 3.953-1.66 1.1713-3.198 2.0253-4.6138 2.5622.537.4392 1.3548.6954 2.4533.7686 1.0986.0732 2.2703-.0488 3.5153-.366 1.245-.3172 2.5389-.8541 3.8815-1.6105 1.3427-.7564 2.5022-1.6471 3.4787-2.672l.1831.183.1831.1831c5.5171 5.5147 10.1309 10.8586 13.8415 16.0317-2.8806 3.0746-5.81 5.1488-8.7883 6.2224Z" fill="currentColor"/></symbol>
	<symbol id="sun" viewBox="0 0 75 75" fill="none"><path d="M37.5 56.25a18.7503 18.7503 0 0 0 13.2583-5.4917 18.7503 18.7503 0 0 0 0-26.5166 18.7503 18.7503 0 0 0-26.5166 0 18.7503 18.7503 0 0 0 0 26.5166A18.7503 18.7503 0 0 0 37.5 56.25ZM37.5 0a2.3439 2.3439 0 0 1 2.3438 2.3438v9.375a2.3437 2.3437 0 0 1-4.6876 0v-9.375A2.344 2.344 0 0 1 37.5 0Zm0 60.9375a2.3437 2.3437 0 0 1 2.3438 2.3437v9.375a2.3437 2.3437 0 0 1-4.6876 0v-9.375A2.3437 2.3437 0 0 1 37.5 60.9375ZM75 37.5a2.3437 2.3437 0 0 1-2.3438 2.3438h-9.375a2.3437 2.3437 0 0 1 0-4.6876h9.375A2.3437 2.3437 0 0 1 75 37.5Zm-60.9375 0a2.3437 2.3437 0 0 1-2.3437 2.3438h-9.375a2.344 2.344 0 0 1-1.6573-4.0011 2.344 2.344 0 0 1 1.6572-.6865h9.3751A2.3437 2.3437 0 0 1 14.0625 37.5Zm49.9547-26.5172a2.3437 2.3437 0 0 1 0 3.3141l-6.6281 6.6328a2.346 2.346 0 0 1-1.6587.6857 2.3451 2.3451 0 0 1-1.6554-4.0045l6.6281-6.6281a2.3438 2.3438 0 0 1 3.3141 0ZM20.925 54.075a2.3435 2.3435 0 0 1 0 3.3141l-6.6281 6.6281a2.3438 2.3438 0 0 1-3.3141-3.3141l6.6281-6.6281a2.344 2.344 0 0 1 3.3141 0Zm43.0922 9.9422a2.3437 2.3437 0 0 1-3.3141 0l-6.6281-6.6281a2.3438 2.3438 0 0 1 3.3141-3.3141l6.6281 6.6281a2.3438 2.3438 0 0 1 0 3.3141ZM20.925 20.9297a2.3437 2.3437 0 0 1-3.3141 0l-6.6281-6.6328a2.3434 2.3434 0 0 1-.7154-1.6655 2.3436 2.3436 0 0 1 1.4561-2.1896 2.345 2.345 0 0 1 1.8126.0158c.286.1228.5446.3014.7608.5252l6.6281 6.6281a2.3453 2.3453 0 0 1 .6886 1.6594 2.3447 2.3447 0 0 1-.6886 1.6594Z" fill="currentColor"/></symbol>
	<symbol id="tomato" viewBox="0 0 75 75" fill="none"><path d="M46.4544 10.9871c-1.4546 0-2.8626.138-4.2155.3702-1.7341-.2175-5.8015-.4831-7.6033-.4831C16.6956 10.8742 1 17.5191 1 40.7796 1 59.6791 15.9249 75 36.9435 75 57.962 75 75 59.6791 75 40.7796c-.0021-23.5282-19.8731-29.7925-28.5456-29.7925Z" fill="currentColor"/><path d="M16.6956 0c3.466 3.4218 5.865 4.7395 6.9321 10.2697.6309 3.2712 4.7978 3.1583 4.7978 3.1583s-8.2639 3.6874-11.7299 7.1113c0 0 10.396-3.4239 13.862-3.4239 0 0 6.93 3.4239 6.93 6.8458 0 0 0-6.8458-3.4639-6.8458 0 0 10.3939 0 10.3939 6.8458 0 0 0-10.2697-3.4661-10.2697 0 0 10.3981-3.4218 13.8642 0 0 0-3.5698-3.5975-10.3981-3.4218 0 0 3.4681-3.424 10.3981-3.424 0 0-11.1964-3.1603-14.6624 3.6875 0 0-2.9325-2.8968 2.9325-8.6905 0 0-9.0621 1.5791-9.0621 8.427 0 0-3.2861-.0837-5.5982-2.6333C23.8923 2.6333 16.6956 0 16.6956 0Z" fill="currentColor"/></symbol>
	<symbol id="orange" viewBox="0 0 75 75" fill="none"><path d="M54.9212 54.9592c13.2445-13.2445 13.2445-34.7147 0-47.9592L6.9669 54.9592c13.2429 13.2412 34.7147 13.2412 47.9576 0h-.0033ZM30.9435 30.9796l23.9796 23.9796M30.9449 30.9796v34.2545M30.9449 30.9796l33.1129 1.1417" stroke="currentColor" stroke-width="8.012" stroke-linecap="round" stroke-linejoin="round"/><path d="M63.9722 22.9008c2.687 11.1097-.3052 23.3126-8.9782 31.9873-8.6746 8.673-20.8792 11.6652-31.9873 8.9782M22.9518 38.9727l13.7014-13.7015" stroke="currentColor" stroke-width="8.012" stroke-linecap="round" stroke-linejoin="round"/></symbol>
	<symbol id="banana" viewBox="0 0 75 75" fill="none"><g clip-path="url(#a)"><path d="M62.857 61.4442c-2.0001 2.5388-3.9758 4.7481-5.9271 6.6278-1.9513 1.8797-3.6588 3.2955-5.1222 4.2476-1.4635.9521-2.8051 1.6478-4.0246 2.0872-1.2196.4394-2.2075.6347-2.9636.5859-.7562-.0488-1.3294-.2441-1.7196-.5859-.5854-.5371-.8903-1.6478-.9147-3.3322-.0244-1.6844.2317-3.5031.7683-5.456.5366-1.9529 1.2684-3.5641 2.1953-4.8335 3.7563-4.8824 6.8784-10.4238 9.3663-16.6244-3.1709 3.9059-6.5857 7.2625-10.2444 10.0698-3.6588 2.8074-7.2443 4.6993-10.7567 5.6758-3.0733.7811-6.0247 1.1351-8.8541 1.0619-2.8295-.0733-5.2564-.4028-7.2809-.9887-2.0245-.5859-3.1343-1.2694-3.3295-2.0506-.1951-.6835.7318-1.9041 2.7807-3.6617 2.0489-1.7577 4.3904-3.4299 7.0247-5.0166 2.6343-1.5868 4.6588-2.5755 6.0735-2.9661 1.0733-.2929 2.6831-1.5379 4.8296-3.7349-5.9516 2.8805-11.2933 4.3208-16.0253 4.3208-2.244 0-4.5368-.2563-6.8784-.7689-2.3416-.5127-4.3539-1.1352-6.037-1.8675-1.683-.7324-3.0733-1.5014-4.1709-2.3069C.5488 41.1215 0 40.4257 0 39.8399c0-1.123 2.5001-2.5755 7.5004-4.3575 5.0003-1.7821 8.7444-2.6731 11.2323-2.6731 1.5123 0 4.2563-1.2816 8.2322-3.8448 3.9758-2.5633 8.1102-5.7246 12.4031-9.484 4.2929-3.7594 7.5613-7.1282 9.8054-10.1064 1.1708-1.5624 3.0977-2.2947 5.7808-2.197.9756-2.8318 1.4635-5.2242 1.4635-7.1771h4.4636c0 1.66-.0244 3.2223-.0732 4.687v.0733l.0366-.0366.0366-.0367c2.1953 1.0742 4.0002 2.661 5.4149 4.7603h.0732l.0732.0732c3.4636 1.5624 5.8662 4.4674 7.2077 8.715 1.3415 4.2477 1.683 8.9103 1.0244 13.9879-.6585 5.0776-2.0367 10.2529-4.1343 15.5258-2.0977 5.273-4.6588 9.838-7.6834 13.695Z" fill="currentColor"/></g><defs><clipPath id="a"><path fill="#fff" d="M0 0h75v75H0z"/></clipPath></defs></symbol>
	<symbol id="apple" viewBox="0 0 75 75" fill="none"><path fill-rule="evenodd" clip-rule="evenodd" d="M41.3724 14.6677c1.0012-3.3625 3.75-8.0874 11.1837-8.0874V3.3878c-8.2837 0-12.2825 4.3474-13.9699 8.7924.3875-3.1487.63-6.9062-.1238-8.5537C37.0549.544 33.3437-.8422 30.1737.529c-3.165 1.3713-4.5912 4.9813-3.1812 8.0638.6337 1.3874 2.8862 3.2674 5.1712 4.9199-11.5325-4.915-30.4911-1.5512-30.4911 20.6337C1.6726 50.9338 21.3986 75 30.0074 75c3.9063 0 5.3125-2.4437 7.5788-2.4437 2.305 0 3.0474 2.4387 8.0449 2.4387 8.615 0 28.5412-23.9837 28.5412-40.8486 0-23.7424-21.7124-25.9286-32.7999-19.4787Z" fill="currentColor"/></symbol>
	<symbol id="like" viewBox="0 0 20 20" fill="none"><path d="M17.6805 5.2789c-.266-.6417-.6495-1.2231-1.1291-1.7118-.48-.4902-1.0458-.8797-1.6669-1.1474A5.0818 5.0818 0 0 0 12.8526 2c-.9783 0-1.9328.2791-2.7623.8063a5.1816 5.1816 0 0 0-.5655.4155 5.1773 5.1773 0 0 0-.5655-.4155C8.1298 2.279 7.1753 2 6.197 2c-.7044 0-1.387.1406-2.032.4197-.623.2687-1.1846.6553-1.6668 1.1474-.4802.4881-.8638 1.0697-1.129 1.7118a5.4921 5.4921 0 0 0-.4168 2.1066c0 .6885.135 1.4059.4028 2.1357.2243.6098.5457 1.2424.9565 1.8813.6508 1.0109 1.5458 2.0653 2.657 3.1341 1.8415 1.7718 3.6651 2.9957 3.7425 3.0453l.4703.3142a.616.616 0 0 0 .6846 0l.4703-.3142c.0774-.0517 1.899-1.2735 3.7425-3.0453 1.1112-1.0688 2.0062-2.1232 2.657-3.1341.4108-.6389.7343-1.2715.9565-1.8813.2679-.7298.4028-1.4472.4028-2.1357a5.4537 5.4537 0 0 0-.4147-2.1066Z" fill="currentColor"/></symbol>
	<symbol id="flag" viewBox="0 0 20 20" fill="none"><path d="M15.4592 2.8046a.4476.4476 0 0 1 .1416.1634.4696.4696 0 0 1 .0514.2138V10a.469.469 0 0 1-.0747.2547.4385.4385 0 0 1-.1983.1671L15.2175 10l.1617.4218-.0026.0009-.0052.0028-.02.0082a10.5209 10.5209 0 0 1-.3452.1363 19.0014 19.0014 0 0 1-.9105.3182c-.7095.2291-1.6339.4755-2.3565.4755-.7365 0-1.3461-.2546-1.8765-.4773l-.0244-.0091c-.5513-.2318-1.0208-.4227-1.5774-.4227-.6086 0-1.4243.2091-2.119.4336-.3112.1014-.6194.212-.9244.3318v5.5982a.465.465 0 0 1-.1274.3214.4252.4252 0 0 1-.3074.1331.4251.4251 0 0 1-.3075-.1331.465.465 0 0 1-.1273-.3214V3.1818a.4652.4652 0 0 1 .1273-.3214.4254.4254 0 0 1 .3075-.1331.4254.4254 0 0 1 .3074.1331.4652.4652 0 0 1 .1274.3214v.2564c.1965-.0718.4313-.1545.687-.2364.7095-.2272 1.6347-.4745 2.3564-.4745.7305 0 1.3253.2518 1.8444.4718l.0374.0164c.5409.2282 1.0122.4209 1.5965.4209.6087 0 1.4244-.2091 2.1191-.4337.396-.1292.7872-.2736 1.1731-.4327l.0165-.0063.0035-.0019h.0008" fill="currentColor"/></symbol>
	<symbol id="star" viewBox="0 0 20 20" fill="none"><g clip-path="url(#a)"><path d="M9.1667 2.2559c.3956-.5962 1.271-.5962 1.6666 0l2.4286 3.6604c.1329.2003.3335.346.565.4105l4.2318 1.1786c.6892.192.9597 1.0246.5149 1.585l-2.7307 3.4409a1.0004 1.0004 0 0 0-.2158.6642l.1867 4.3889c.0304.7148-.6778 1.2293-1.3483.9795l-4.1163-1.5338a1.0003 1.0003 0 0 0-.6984 0l-4.1163 1.5338c-.6705.2498-1.3787-.2647-1.3483-.9795l.1867-4.3889a1.0003 1.0003 0 0 0-.2158-.6642L1.4264 9.0904c-.4448-.5604-.1743-1.393.515-1.585L6.173 6.3268a1 1 0 0 0 .565-.4105L9.1667 2.256Z" fill="currentColor"/></g><defs><clipPath id="a"><path fill="#fff" d="M0 0h20v20H0z"/></clipPath></defs></symbol>
	<symbol id="circles-pen" viewBox="0 0 20 20" fill="none"><path d="M10.6199 8.8442c0 .3469-.1313.6796-.3648.9249-.2336.2452-.5505.383-.8808.383-.3304 0-.6472-.1378-.8808-.383-.2336-.2453-.3648-.578-.3648-.9249 0-.3469.1312-.6795.3648-.9248.2336-.2453.5504-.3831.8808-.3831.3303 0 .6472.1378.8808.383.2335.2454.3648.578.3648.925ZM9.3743 4.2665c-1.0526-.0003-2.0698.3994-2.8637 1.1251-.7939.7258-1.3109 1.7287-1.4556 2.8234-.1446 1.0948.0928 2.2076.6685 3.133.5757.9253 1.4508 1.6006 2.4638 1.9013a4.9883 4.9883 0 0 1 .3686-.4355l.6702-.7037c-.6026-.0301-1.184-.2434-1.6733-.6139-.4893-.3704-.8656-.8822-1.0832-1.4731a3.4237 3.4237 0 0 1-.1422-1.855c.1247-.6199.4182-1.1883.8448-1.6362.4265-.448.9679-.7561 1.5581-.887a2.9746 2.9746 0 0 1 1.7667.1493c.5627.2284 1.0501.6236 1.4029 1.1374.3528.5138.5559 1.1242.5846 1.757l1.075-1.1288c-.265-.95-.816-1.7843-1.5706-2.3778-.7545-.5935-1.6719-.9142-2.6146-.9142v-.0013Zm5.777 2.128c-.542-1.4069-1.5331-2.572-2.8034-3.296-1.2703-.7238-2.7408-.9613-4.1595-.6718-1.4188.2896-2.6975 1.0881-3.6172 2.259-.9196 1.1707-1.4229 2.6409-1.4236 4.1585-.0001 1.3602.4035 2.6866 1.1547 3.7947.7512 1.1081 1.8127 1.9427 3.0367 2.3879a5.4665 5.4665 0 0 0-.0212.0824l-.2827 1.1902c-1.2054-.4179-2.2895-1.1514-3.1502-2.1311-.8607-.9798-1.4695-2.1736-1.769-3.4689a8.2275 8.2275 0 0 1 .0569-3.9344c.3368-1.2851.9799-2.459 1.8685-3.4109.8886-.9518 1.9934-1.6504 3.2103-2.0297a7.1301 7.1301 0 0 1 3.745-.1382c1.2393.2886 2.3882.904 3.3382 1.788.9501.884 1.67 2.0075 2.092 3.2646a3.0577 3.0577 0 0 0-1.2767.1557h.0012Zm-5.3959 7.0091 3.961-4.1592 1.06-1.113a1.9387 1.9387 0 0 1 .6305-.443 1.8617 1.8617 0 0 1 .744-.1557c.2553 0 .5082.0529.744.1556.2359.1028.4501.2533.6305.4431.7598.7978.7598 2.0888 0 2.8866l-5.3411 5.6071c-.4433.4653-.9987.7953-1.6068.9547l-1.5071.3964a.725.725 0 0 1-.387-.0051.7526.7526 0 0 1-.3343-.2044.8077.8077 0 0 1-.1952-.3508.8366.8366 0 0 1-.0053-.4063l.0972-.4068.2803-1.1771.0249-.0981c.1606-.6003.4646-1.147.8843-1.5878l.3201-.3362Z" fill="currentColor"/></symbol>
	<symbol id="facebook" viewBox="0 0 37 37" fill="none"><path d="M36.003 18.112C36.003 8.109 27.944 0 18.003 0 8.06.002 0 8.109 0 18.114c0 9.038 6.583 16.53 15.187 17.89V23.347H10.62v-5.234h4.572v-3.993c0-4.539 2.688-7.045 6.799-7.045 1.97 0 4.03.353 4.03.353v4.455h-2.27c-2.235 0-2.932 1.397-2.932 2.83v3.398h4.99l-.797 5.233h-4.196v12.656c8.604-1.359 15.187-8.851 15.187-17.89Z" fill="currentColor"/></symbol>
	<symbol id="vk" viewBox="0 0 37 36" fill="none"><path d="M18.003 0c-9.941 0-18 8.059-18 18 0 9.94 8.059 17.999 18 17.999 9.94 0 18-8.059 18-18 0-9.94-8.06-17.999-18-17.999Zm6.922 20.308s1.592 1.57 1.984 2.3c.011.015.017.03.02.037.16.269.197.477.119.632-.132.26-.582.387-.735.398H23.5c-.195 0-.604-.05-1.099-.392-.38-.266-.755-.703-1.12-1.129-.546-.633-1.019-1.18-1.495-1.18-.06-.001-.12.009-.178.027-.36.116-.822.63-.822 1.999 0 .427-.337.673-.575.673h-1.288c-.439 0-2.724-.154-4.75-2.29-2.478-2.615-4.71-7.86-4.728-7.91-.14-.339.15-.52.467-.52h2.84c.38 0 .503.23.59.434.1.238.472 1.185 1.081 2.25.988 1.736 1.594 2.441 2.08 2.441a.562.562 0 0 0 .26-.067c.634-.353.515-2.612.487-3.08 0-.089-.002-1.011-.326-1.454-.232-.32-.628-.442-.868-.487.097-.134.225-.243.373-.317.435-.218 1.219-.25 1.997-.25h.433c.844.012 1.061.066 1.367.143.619.148.632.547.577 1.914-.017.388-.033.827-.033 1.345 0 .112-.006.232-.006.36-.019.695-.041 1.485.45 1.809.064.04.138.061.214.062.17 0 .684 0 2.075-2.387a18.22 18.22 0 0 0 1.116-2.389c.028-.048.11-.198.208-.257a.5.5 0 0 1 .232-.054h3.34c.363 0 .613.054.66.195.082.223-.015.904-1.54 2.968l-.68.898c-1.382 1.811-1.382 1.903.086 3.277Z" fill="currentColor"/></symbol>
	<symbol id="burger" viewBox="0 0 20 20" fill="none"><path d="M3 15h13.333M3 5h13.333H3Zm0 5h13.333H3Z" stroke="currentColor" stroke-linecap="round" stroke-linejoin="round"/></symbol>
	<symbol id="close" viewBox="0 0 20 20" fill="none"><path d="m6 6 8 8m-8 0 8-8-8 8Z" stroke="#fff" stroke-width="2" stroke-linecap="round" stroke-linejoin="round"/></symbol>
	<symbol id="arrow" viewBox="0 0 49 49" fill="none" ><path fill-rule="evenodd" clip-rule="evenodd" d="M17.8674 36.0318a2.4543 2.4543 0 0 1-.7174-1.7343c0-.6505.258-1.2743.7174-1.7344l8.0684-8.0779-8.0684-8.078a2.454 2.454 0 0 1-.6877-1.7254 2.454 2.454 0 0 1 .7175-1.7133 2.4488 2.4488 0 0 1 1.7112-.7184 2.4487 2.4487 0 0 1 1.7235.6885l9.8007 9.8123c.4593.46.7174 1.0838.7174 1.7343a2.4546 2.4546 0 0 1-.7174 1.7343l-9.8007 9.8123a2.4483 2.4483 0 0 1-3.4645 0Z" fill="#FF6B00"/></symbol>
	<symbol id="mail" viewBox="0 0 25 25" fill="none" ><path d="M4.6667 4c-.9725 0-1.9051.3793-2.5928 1.0544C1.3863 5.7295 1 6.6452 1 7.6v.3618l11 5.8158 11-5.814V7.6c0-.9548-.3863-1.8704-1.0739-2.5456C21.2384 4.3793 20.3058 4 19.3333 4H4.6667ZM23 10.0066 12.4345 15.592a.9297.9297 0 0 1-.4345.1075.9297.9297 0 0 1-.4345-.1075L1 10.0066V18.4c0 .9548.3863 1.8705 1.074 2.5456C2.7615 21.6207 3.6941 22 4.6666 22h14.6666c.9725 0 1.9051-.3793 2.5928-1.0544C22.6137 20.2705 23 19.3548 23 18.4v-8.3934Z" fill="#currentColor"/></symbol>
	<symbol id="phone" viewBox="0 0 25 25" fill="none"><g clip-path="url(#a)"><path d="m4.1647 2.419 1.173-.7514c1.1002-.704 2.5505-.4305 3.3887.6383l1.669 2.1295c.7262.9274.8084 2.2255.2032 3.2085l-1.6872 2.7365c.4812 1.2382 1.249 2.3781 2.3022 3.4198a10.6653 10.6653 0 0 0 3.5295 2.3514l2.471-1.6277c.9362-.6155 2.1615-.5233 3.0376.2292l2.0444 1.752c1.02.8753 1.2835 2.3878.6175 3.5395l-.7128 1.2342c-.7106 1.2284-2.0023 1.9519-3.3901 1.8969-3.2786-.1278-6.8058-2.1699-10.5862-6.1249-3.7859-3.9612-5.7391-7.6612-5.8572-11.0957-.05-1.4452.633-2.7908 1.7974-3.5361Z" fill="#fff"/></g><defs><clipPath id="a"><path fill="#fff" d="M0 0h25v25H0z"/></clipPath></defs></symbol>
</svg>
