<svg xmlns="http://www.w3.org/2000/svg" >
	<symbol width="113" height="45" id="logo" fill="none"><path d="M49.6407 28.7227v-15.136l3.6139-.01V26.15h9.3498v2.5727H49.6407ZM63.7957 22.4961c0-.8342.1368-1.6083.4104-2.3224.2803-.7208.7208-1.3414 1.3214-1.862.6007-.5272 1.3748-.941 2.3225-1.2413.9543-.3003 2.1056-.4505 3.4536-.4505 1.3481 0 2.496.1502 3.4437.4505.9543.3003 1.7318.7141 2.3325 1.2413.6006.5272 1.0377 1.1512 1.3113 1.872.2803.7141.4205 1.4882.4205 2.3224v.6507c0 .8343-.1402 1.6084-.4205 2.3225-.2736.7141-.7107 1.3381-1.3113 1.872-.6007.5272-1.3782.941-2.3325 1.2413-.9477.3003-2.0956.4505-3.4437.4505-1.348 0-2.4993-.1502-3.4536-.4505-.9477-.3003-1.7218-.7141-2.3225-1.2413-.6006-.5272-1.0411-1.1479-1.3214-1.862-.2736-.7208-.4104-1.4982-.4104-2.3325v-.6607Zm3.5137.6808c0 .4671.0768.9143.2303 1.3414.1535.4204.3904.7908.7107 1.1112.327.3203.7408.5772 1.2413.7708.5072.1868 1.1112.2803 1.8119.2803.7008 0 1.3014-.0935 1.802-.2803.5072-.1869.9209-.4405 1.2413-.7608.3203-.3204.5572-.6908.7107-1.1112.1535-.4271.2303-.8776.2303-1.3514v-.7008c0-.4605-.0768-.9009-.2303-1.3214-.1468-.4204-.3804-.7908-.7007-1.1112-.3204-.3203-.7341-.5739-1.2413-.7608-.5006-.1935-1.1045-.2903-1.812-.2903-.714 0-1.3247.0968-1.8319.2903-.5005.1869-.911.4405-1.2313.7608-.3203.3204-.5572.6908-.7107 1.1112-.1469.4205-.2203.8609-.2203 1.3214v.7008ZM80.3933 22.4561c0-.4872.0567-.971.1701-1.4515a5.4206 5.4206 0 0 1 .5206-1.3615c.2402-.4338.5372-.8342.8909-1.2013.3604-.3737.7809-.694 1.2614-.961.4871-.2669 1.0411-.4771 1.6617-.6306.6207-.1535 1.3081-.2303 2.0622-.2303.5873 0 1.1179.0501 1.5917.1502.4805.1001.911.2402 1.2914.4204.387.1802.7241.4005 1.011.6607.2937.2536.5473.5339.7608.8409v-1.7618h3.5138V27.081c0 .7741-.1202 1.5049-.3604 2.1923-.2403.6874-.6374 1.288-1.1913 1.8019-.5539.5139-1.2847.921-2.1923 1.2213-.901.3003-2.0121.4505-3.3335.4505-1.2547 0-2.3458-.0601-3.2735-.1802-.9276-.1135-1.6851-.2202-2.2724-.3203l.2903-2.1924c.2469.0534.5639.1035.951.1502.3871.0534.8009.0968 1.2413.1301.4405.0401.8876.0701 1.3414.0901.4605.0267.8876.0401 1.2814.0401.7208 0 1.3347-.0801 1.842-.2403.5138-.1602.9309-.3771 1.2513-.6507.3203-.2669.5539-.5806.7007-.941a3.0716 3.0716 0 0 0 .2202-1.1512v-.0601l-.01-.951c-.2069.2937-.4538.5673-.7407.8209-.287.2536-.6207.4738-1.0011.6607-.3804.1869-.8142.3337-1.3014.4405-.4872.1001-1.0344.1501-1.6417.1501-1.0611 0-1.9988-.1568-2.813-.4705-.8142-.3136-1.4983-.7307-2.0522-1.2513-.5472-.5272-.9643-1.1345-1.2513-1.8219-.2803-.6941-.4204-1.4182-.4204-2.1723v-.3704Zm3.5337.2903c0 .4805.0801.931.2403 1.3514.1668.4138.4104.7742.7307 1.0812.327.307.7275.5506 1.2013.7307.4805.1736 1.0311.2603 1.6517.2603.634 0 1.1913-.0834 1.6718-.2502.4872-.1669.891-.4038 1.2113-.7108.327-.3137.5706-.6907.7308-1.1312.1668-.4405.2502-.9343.2502-1.4816v-.1001c0-.4871-.0767-.941-.2302-1.3614-.1535-.4271-.3871-.7975-.7007-1.1112-.3137-.3203-.7141-.5706-1.2013-.7508-.4872-.1868-1.0645-.2803-1.7319-.2803-.6673 0-1.2413.1001-1.7218.3003-.4805.2003-.8776.4639-1.1912.7909-.307.327-.5373.7041-.6908 1.1312a4.0076 4.0076 0 0 0-.2202 1.3114v.2202ZM97.7116 22.4961c0-.8342.1368-1.6083.4104-2.3224.2803-.7208.7208-1.3414 1.3214-1.862.6006-.5272 1.3746-.941 2.3226-1.2413.954-.3003 2.105-.4505 3.454-.4505 1.348 0 2.495.1502 3.443.4505.955.3003 1.732.7141 2.333 1.2413.6.5272 1.037 1.1512 1.311 1.872.28.7141.42 1.4882.42 2.3224v.6507c0 .8343-.14 1.6084-.42 2.3225-.274.7141-.711 1.3381-1.311 1.872-.601.5272-1.378.941-2.333 1.2413-.948.3003-2.095.4505-3.443.4505-1.349 0-2.5-.1502-3.454-.4505-.948-.3003-1.722-.7141-2.3226-1.2413-.6006-.5272-1.0411-1.1479-1.3214-1.862-.2736-.7208-.4104-1.4982-.4104-2.3325v-.6607Zm3.5134.6808c0 .4671.077.9143.231 1.3414.153.4204.39.7908.71 1.1112.327.3203.741.5772 1.242.7708.507.1868 1.111.2803 1.812.2803.7 0 1.301-.0935 1.801-.2803.508-.1869.921-.4405 1.242-.7608.32-.3204.557-.6908.71-1.1112.154-.4271.231-.8776.231-1.3514v-.7008c0-.4605-.077-.9009-.231-1.3214-.146-.4204-.38-.7908-.7-1.1112-.321-.3203-.734-.5739-1.242-.7608-.5-.1935-1.104-.2903-1.811-.2903-.715 0-1.325.0968-1.832.2903-.501.1869-.911.4405-1.232.7608-.32.3204-.557.6908-.71 1.1112-.147.4205-.221.8609-.221 1.3214v.7008ZM44.1186 22.632c0 12.183-9.8763 22.0593-22.0593 22.0593S0 34.815 0 22.632 9.8763.5728 22.0593.5728 44.1186 10.449 44.1186 22.632Z" fill="currentColor"/></symbol>
</svg>
