<svg width="96" height="53" viewBox="0 0 96 53" fill="none" xmlns="http://www.w3.org/2000/svg">
<path d="M82.0702 51.9062C82.3516 51.7004 82.3524 51.6552 82.0891 50.8622C81.9376 50.4064 81.685 49.8743 81.5276 49.6799C81.2784 49.3722 81.2692 49.2729 81.4567 48.9116C81.5751 48.6833 81.7455 48.4875 81.8353 48.4765C81.9251 48.4654 82.1352 48.4473 82.3021 48.4362C82.6687 48.4119 82.8498 47.8358 82.6236 47.4131C82.5073 47.1958 82.5168 47.0378 82.6562 46.8698C82.8557 46.6294 82.85 46.6061 82.3181 45.4815C82.1601 45.1474 82.1555 44.9905 82.2986 44.8182C82.4435 44.6435 82.4307 44.5466 82.2423 44.3902C82.1083 44.279 81.9986 44.0156 81.9986 43.805C81.9986 43.5943 81.9436 43.4219 81.8763 43.4219C81.7358 43.4219 81.2726 44.0977 81.3124 44.2446C81.3269 44.2984 81.1591 44.4385 80.9395 44.5561C80.7198 44.6737 80.4979 44.9378 80.4464 45.143C80.3949 45.3483 80.2933 45.5163 80.2206 45.5163C80.1479 45.5163 79.984 45.6207 79.8564 45.7483C79.518 46.0867 79.0144 45.8865 78.6903 45.2848C78.4889 44.9108 78.2864 44.7541 77.9879 44.7412C77.7572 44.7313 77.2933 44.6963 76.957 44.6635C76.6207 44.6307 76.3111 44.6598 76.2689 44.728C76.1561 44.9106 75.5729 44.7629 75.1092 44.4342C74.5352 44.0273 74.3885 43.9434 74.0242 43.8141C73.7182 43.7056 73.721 43.6948 74.0789 43.6L74.4558 43.5002L74.0386 43.05C73.8092 42.8024 73.6214 42.5311 73.6214 42.447C73.6214 42.363 73.5458 42.2942 73.4533 42.2942C73.3608 42.2942 73.089 42.1095 72.8492 41.8836C72.4411 41.4993 72.3358 41.4783 71.2049 41.5568C69.4722 41.6769 69.272 41.7116 69.2697 41.8915C69.2686 41.9801 69.0149 42.2164 68.7059 42.4166C68.0671 42.8303 68.0017 43.0945 68.4662 43.3846C68.8265 43.6096 68.9043 44.3693 68.5984 44.6753C68.4935 44.7801 68.4012 45.3542 68.3925 45.956C68.3786 46.9165 68.3231 47.1038 67.9274 47.5249L67.4781 48.003L66.7662 47.747C66.1823 47.5371 66.0038 47.528 65.7731 47.6968C65.5434 47.8647 65.4115 47.8609 65.0544 47.6763C64.6613 47.473 64.5592 47.4843 64.0435 47.7885C63.728 47.9747 63.4281 48.2938 63.3769 48.4978C63.3112 48.7594 63.1282 48.8978 62.7557 48.9677C62.4652 49.0222 62.0992 49.2086 61.9422 49.382C61.7853 49.5554 61.5825 49.6512 61.4915 49.595C61.4005 49.5388 60.9089 49.5078 60.399 49.5262C59.628 49.554 59.4169 49.5005 59.1448 49.2085C58.9318 48.9799 58.7013 48.8876 58.4846 48.9443C58.2605 49.0029 58.0977 48.9307 57.9869 48.7237C57.7809 48.3388 56.6409 48.3011 55.9591 48.6567C55.7053 48.7891 55.3636 48.8978 55.1998 48.8984C54.8622 48.8995 53.9672 48.0135 53.9672 47.6782C53.9672 47.4387 53.1703 46.9662 52.7663 46.9662C52.3674 46.9662 51.3237 46.3482 51.2016 46.0396C51.1109 45.8106 51.0879 45.8289 51.0787 46.1374C51.0725 46.3461 50.8861 46.7323 50.6646 46.9955C50.2456 47.4935 50.1359 48.2257 50.4354 48.5252C50.5594 48.6492 50.4896 48.818 50.191 49.1167C49.8519 49.4558 49.6749 49.516 49.2523 49.436C48.9658 49.3817 48.644 49.2688 48.5371 49.185C48.4302 49.1013 48.2768 49.0735 48.1962 49.1233C48.0299 49.2261 47.624 48.8035 47.4682 48.3655C47.3909 48.1481 47.2299 48.0862 46.8396 48.1238C46.551 48.1517 46.2424 48.0874 46.1538 47.9811C46.0303 47.8329 45.7858 47.8664 45.1067 48.1247C44.6193 48.31 44.0144 48.4538 43.7624 48.4441C43.434 48.4316 43.3284 48.4898 43.3897 48.6497C43.4854 48.8991 43.2332 49.0273 42.3818 49.162C42.0641 49.2123 41.7541 49.2841 41.693 49.3215C41.6319 49.359 41.4144 49.2116 41.2097 48.9939C40.9858 48.7559 40.6149 48.578 40.2787 48.5474C39.8038 48.5042 39.6976 48.4181 39.5707 47.973C39.4887 47.6851 39.3233 47.4495 39.2032 47.4495C39.0677 47.4495 38.9848 47.265 38.9848 46.9635C38.9848 46.5666 38.8813 46.4283 38.4194 46.208C38.0163 46.0158 37.8042 45.988 37.6808 46.1114C37.408 46.3843 36.8999 46.1627 36.6383 45.6569C36.3859 45.1687 35.9239 45.0257 35.9239 45.4357C35.9239 45.5686 35.8152 45.6773 35.6823 45.6773C35.493 45.6773 35.4406 45.4569 35.4406 44.6594C35.4406 44.0996 35.327 43.2587 35.188 42.7909C35.0491 42.323 34.969 41.9067 35.01 41.8657C35.051 41.8246 34.911 41.6037 34.6988 41.3747C34.221 40.8592 34.2178 40.7513 34.6754 40.6046C34.9905 40.5035 34.9547 40.4721 34.402 40.3643C33.944 40.275 33.7049 40.3016 33.5471 40.4594C33.3269 40.6797 32.7142 40.6712 32.1648 40.4404C31.9341 40.3434 31.9163 40.2872 32.0835 40.1839C32.2516 40.08 32.2285 39.9994 31.9762 39.8087C31.7994 39.6751 31.5664 39.5635 31.4585 39.5607C31.3505 39.5578 31.3039 39.4468 31.3549 39.3139C31.4227 39.1372 31.3347 39.0722 31.0276 39.0722C30.6264 39.0722 30.4662 38.7841 30.7241 38.5262C30.7881 38.4621 30.8565 38.1601 30.876 37.8549C30.9051 37.4008 30.8547 37.3001 30.5985 37.3001C30.4263 37.3001 30.1444 37.1591 29.972 36.9867C29.7211 36.7359 29.5613 36.7011 29.1723 36.8127C28.6415 36.9649 27.1981 36.7081 25.533 36.1653C25.0013 35.992 24.4633 35.8502 24.3374 35.8502C24.2115 35.8502 23.9804 35.7344 23.824 35.5928C23.6675 35.4512 23.4711 35.3776 23.3875 35.4293C23.1396 35.5825 23.0496 36.3948 23.2516 36.6557C23.413 36.8642 23.4012 36.8681 23.1656 36.6836C22.7365 36.3477 22.142 36.5025 22.1882 36.9382C22.2316 37.3472 21.7968 37.4406 21.4406 37.0988C21.2692 36.9342 21.247 37.0153 21.3195 37.5418C21.5133 38.9509 21.5116 38.9804 21.2314 39.0372C21.0807 39.0678 20.8005 38.9124 20.6088 38.6919C20.4171 38.4714 20.1714 38.3251 20.0629 38.3668C19.8063 38.4652 19.5371 38.1297 19.4669 37.624C19.4327 37.3778 19.2874 37.1992 19.0906 37.1617C18.9144 37.1281 18.6712 36.9593 18.5503 36.7868C18.4269 36.6105 18.2263 36.513 18.0928 36.5642C17.9621 36.6144 17.6796 36.6114 17.4651 36.5576C17.1674 36.4828 17.0752 36.3518 17.0752 36.0034C17.0752 35.4455 16.8314 35.2589 16.6076 35.6455C16.4818 35.8626 16.4551 35.7466 16.4958 35.1598C16.5392 34.5336 16.4918 34.3581 16.2432 34.2251C16.0749 34.135 15.9481 33.9745 15.9614 33.8683C16.0209 33.3944 15.9282 33.255 15.585 33.3028C15.3143 33.3404 15.2097 33.263 15.1719 32.9969C15.1268 32.68 15.0511 32.6504 14.4872 32.7293C14.115 32.7813 13.8532 32.7518 13.8532 32.6578C13.8532 32.5697 13.5451 32.5132 13.1685 32.5322C12.609 32.5604 12.4747 32.6287 12.4341 32.906C12.4068 33.0927 12.2772 33.2865 12.1461 33.3368C11.8829 33.4378 11.6775 33.0727 11.8073 32.7344C11.9637 32.3268 11.6892 32.1633 11.0031 32.2553C10.4818 32.3253 10.3139 32.4254 10.2427 32.709C10.1489 33.0828 9.50347 33.3898 9.50347 33.0606C9.50347 32.9606 9.38843 33.043 9.24784 33.2437C9.05294 33.5219 9.03592 33.6613 9.17622 33.8304C9.31875 34.0021 9.29466 34.089 9.06938 34.2158C8.79608 34.3695 8.80124 34.4006 9.15478 34.7312C9.41159 34.9713 9.5018 35.192 9.43891 35.4263C9.38823 35.6152 9.34578 35.8603 9.34457 35.9711C9.34336 36.0818 9.23363 36.1724 9.10072 36.1724C8.80958 36.1724 8.77742 36.7474 9.05882 36.9213C9.50772 37.1987 8.43414 37.2342 7.79003 36.9632C7.20694 36.7179 7.06975 36.7109 6.69139 36.9072C6.4536 37.0306 6.20971 37.1246 6.14942 37.1162C5.63447 37.0441 5.47299 37.1672 5.50645 37.6063C5.52603 37.8633 5.45 38.1844 5.3375 38.32C5.16783 38.5244 5.18606 38.5949 5.44438 38.7331C5.61566 38.8248 5.80158 38.854 5.85753 38.7981C5.91348 38.7421 5.95926 38.7809 5.95926 38.8843C5.95926 38.9955 5.70148 39.0722 5.32766 39.0722C4.6431 39.0722 4.68457 39.0044 4.41639 40.5624C4.3378 41.019 4.23549 41.1665 3.99754 41.1665C3.32655 41.1665 3.05945 40.8695 3.05945 40.1232C3.05945 39.7328 2.98225 39.3657 2.88789 39.3074C2.79353 39.2491 2.72871 39.0092 2.74386 38.7743C2.81577 37.6591 2.73744 37.3819 2.27624 37.1196C1.89778 36.9044 1.80182 36.7216 1.72925 36.0778C1.68084 35.6483 1.56009 35.2699 1.46091 35.2368C1.21878 35.1561 0.804047 34.3336 0.804047 33.9342C0.804047 33.7576 0.666855 33.517 0.499174 33.3995C0.238516 33.217 0.180209 32.8991 0.0971493 31.208L0 29.2301L0.389016 29.6498C0.731918 30.0198 0.817767 30.0448 1.11324 29.8602C1.38257 29.692 1.51177 29.6905 1.77065 29.8521C2.05992 30.0328 2.09285 30.013 2.09285 29.6587C2.09285 29.4417 2.16535 29.2193 2.25395 29.1646C2.34256 29.1098 2.41562 29.1236 2.41631 29.1953C2.41757 29.3258 3.1709 29.7284 3.41377 29.7284C3.65706 29.7284 3.54282 29.2612 3.26083 29.1028C3.01169 28.963 3.00846 28.9332 3.23305 28.8466C3.54994 28.7245 4.34826 29.0146 4.34826 29.252C4.34826 29.4871 5.03361 29.2707 5.20204 28.9824C5.2729 28.8611 5.43601 28.7618 5.56452 28.7618C5.69302 28.7618 5.79816 28.6978 5.79816 28.6195C5.79816 28.5412 5.94315 28.4393 6.12036 28.3929C6.51819 28.2889 6.55944 27.4593 6.20096 26.7719C6.06918 26.5192 6.00321 26.1457 6.05437 25.9419C6.13237 25.6311 6.07034 25.5544 5.66997 25.4665C5.2584 25.3761 5.19779 25.2952 5.23043 24.8802C5.25126 24.6155 5.42377 24.254 5.61378 24.077C6.02625 23.6927 6.03341 23.6231 5.70819 23.1587C5.47107 22.8202 5.47977 22.7917 5.86479 22.6453C6.10643 22.5534 6.31698 22.3129 6.38177 22.0548C6.47366 21.6887 6.39498 21.5312 5.88802 21.0666L5.28497 20.514L5.73281 20.0465C6.26257 19.4936 6.37688 19.4716 6.48924 19.9013C6.55102 20.1375 6.70898 20.2235 7.08139 20.2235C7.41157 20.2235 7.55073 20.1611 7.4791 20.0452C7.3246 19.7952 7.72429 18.6034 8.10725 18.1722C8.28297 17.9744 8.56025 17.7701 8.72345 17.7183C9.03256 17.6202 9.14148 16.9344 8.87419 16.7692C8.7939 16.7196 8.76397 16.5422 8.80768 16.3751C8.85138 16.208 8.80833 16.0225 8.712 15.963C8.45046 15.8014 8.50067 15.3905 8.78197 15.3905C8.91678 15.3905 9.10965 15.2092 9.21058 14.9877C9.31151 14.7662 9.49119 14.585 9.60988 14.585C9.72856 14.585 9.82567 14.515 9.82567 14.4295C9.82567 14.3441 9.98165 14.1906 10.1723 14.0886C10.4675 13.9306 10.5041 13.9417 10.419 14.1635C10.2858 14.5107 10.5589 14.4962 10.8234 14.1419C10.9392 13.9869 11.3817 13.6962 11.8068 13.4959C12.6466 13.1003 13.0456 13.1735 13.3719 13.7832C13.6608 14.3231 13.8646 14.1493 13.7539 13.4573C13.6824 13.0096 13.7093 12.8129 13.8421 12.8129C13.9473 12.8129 13.9837 12.7326 13.9231 12.6345C13.8511 12.5181 13.9178 12.4892 14.1149 12.5512C14.7554 12.7528 16.183 12.974 16.844 12.974C17.5351 12.974 18.138 12.6156 17.9523 12.3151C17.7805 12.0371 18.0548 11.5448 18.4119 11.4902C18.6071 11.4603 18.7486 11.347 18.7265 11.2383C18.7043 11.1297 18.8312 11.0408 19.0084 11.0408C19.2074 11.0408 19.3311 10.9329 19.3319 10.7588C19.3331 10.4873 19.9812 10.0742 20.4062 10.0742C20.5194 10.0742 20.7395 9.8748 20.8954 9.63114C21.2862 9.02025 21.5972 8.79691 22.0693 8.78801C22.6335 8.77738 22.8179 8.61966 22.9436 8.03983C23.0357 7.61516 23.1439 7.52118 23.6324 7.44192C24.0583 7.3728 24.3277 7.43035 24.6489 7.65911C24.8893 7.83028 25.1219 7.93448 25.1657 7.89065C25.2095 7.84683 25.3417 7.92699 25.4594 8.06879C25.5994 8.23754 25.6164 8.36412 25.5085 8.43516C25.292 8.57768 25.1198 9.26866 25.3007 9.26866C25.3779 9.26866 25.5281 9.43121 25.6344 9.62988C25.872 10.0739 25.83 13.4381 25.5831 13.7356C25.4902 13.8475 25.1431 14.0203 24.8117 14.1196C24.3155 14.2683 24.14 14.2547 23.8166 14.0428C23.2276 13.6569 22.705 12.0254 22.7102 10.5889C22.7119 10.1291 22.437 10.2707 22.1937 10.855C21.9629 11.4094 21.9522 11.4523 21.9283 11.916C21.9152 12.1723 21.7828 12.3459 21.5457 12.4178C20.9221 12.6069 20.4583 13.1515 20.4583 13.6948C20.4583 13.9717 20.3713 14.2853 20.265 14.3917C20.1377 14.5189 20.1313 14.585 20.2462 14.585C20.3422 14.585 20.4586 14.73 20.505 14.9072C20.599 15.2669 21.0137 15.3376 21.214 15.028C21.2857 14.9172 21.3444 14.647 21.3444 14.4274C21.3444 14.1782 21.4486 14.0076 21.6218 13.9734C21.8433 13.9297 21.8951 14.0284 21.8787 14.4632C21.8376 15.5577 22.5953 16.1005 22.9088 15.2011C23.0775 14.7172 23.084 14.715 23.9774 14.8266C24.5207 14.8945 24.9539 15.0441 25.0725 15.205C25.1824 15.3539 25.2024 15.4948 25.1179 15.5251C24.8651 15.6156 25.1282 15.8738 25.4734 15.8738C25.8612 15.8738 26.201 15.5646 26.2825 15.1374C26.3156 14.9635 26.4992 14.8041 26.6994 14.7756C26.8961 14.7475 27.1961 14.5476 27.3662 14.3314C27.5618 14.0828 27.7702 13.9746 27.9333 14.0372C28.2353 14.1531 28.2474 14.255 28.0273 14.8336C27.9034 15.1597 27.8132 15.2226 27.6565 15.0925C27.2934 14.7912 26.7799 15.0538 26.7026 15.5804C26.6101 16.2105 26.9682 16.5825 27.5319 16.4418C28.5386 16.1907 29.8458 16.3043 30.2466 16.6776C30.4473 16.8646 30.6317 16.9318 30.6892 16.8387C30.7434 16.751 30.9397 16.6793 31.1254 16.6793C31.4518 16.6793 31.4534 16.6899 31.1742 16.9985C30.9322 17.2659 30.9197 17.359 31.097 17.5727C31.2261 17.7282 31.4459 17.7933 31.6605 17.7394C31.883 17.6835 32.1084 17.7572 32.2736 17.9398C32.4363 18.1196 32.7237 18.2155 33.0349 18.194C33.4845 18.1629 33.5253 18.1972 33.4402 18.5361C33.3601 18.8555 33.4019 18.9068 33.7153 18.8734C34.2476 18.8166 34.474 18.6382 34.474 18.2757C34.474 17.6982 34.9213 17.7499 35.516 18.396C36.0798 19.0087 36.3522 19.5268 36.1937 19.6852C36.1487 19.7302 36.2531 19.9083 36.4257 20.0808C36.5983 20.2534 36.7826 20.6099 36.8352 20.8729C36.8878 21.136 37.0216 21.3512 37.1326 21.3512C37.4643 21.3512 37.7303 20.9075 37.6155 20.5457C37.5562 20.359 37.5951 20.1034 37.7025 19.9741C37.8394 19.8091 37.8434 19.7402 37.7158 19.7402C37.4314 19.7402 37.504 19.2665 37.8571 18.8175C38.0344 18.5923 38.1793 18.2365 38.1793 18.0269C38.1793 17.7566 38.2706 17.6459 38.4934 17.6459C38.6661 17.6459 39.1528 17.3197 39.5749 16.9209C39.997 16.5222 40.3584 16.196 40.378 16.196C40.3977 16.196 40.5997 16.2667 40.827 16.3531C41.3851 16.5653 41.3643 17.1078 40.7712 17.8131C40.4308 18.2178 40.3243 18.4852 40.3833 18.7875C40.4336 19.0457 40.367 19.3017 40.208 19.4607C40.0669 19.6017 39.9514 19.7812 39.9514 19.8595C39.9514 19.9378 39.805 20.305 39.6259 20.6756C39.4205 21.1008 39.3377 21.4976 39.4014 21.7515C39.4743 22.0421 39.4279 22.1822 39.2343 22.2565C39.0869 22.3131 39.0054 22.4611 39.0531 22.5854C39.1065 22.7247 38.9865 22.8697 38.7401 22.9634C38.5203 23.0469 38.3404 23.1843 38.3404 23.2686C38.3404 23.3529 38.106 23.5389 37.8194 23.6818C37.3347 23.9236 37.2842 23.9223 37.0945 23.6628C36.9823 23.5094 36.8905 23.4429 36.8905 23.515C36.8905 23.5871 36.7818 23.5558 36.6489 23.4455C36.5026 23.3241 36.4072 23.3111 36.4072 23.4126C36.4072 23.823 36.6469 24.1184 37.1508 24.3289C37.6407 24.5336 37.7654 24.5244 38.4197 24.235C39.3665 23.8161 40.0239 23.1949 40.0645 22.6807C40.1073 22.139 40.281 21.9855 40.7212 22.1007C41.1331 22.2084 41.3754 22.8915 41.0996 23.1673C40.8749 23.392 40.8594 24.0899 41.0791 24.0899C41.1678 24.0899 41.3924 24.242 41.5784 24.428L41.9165 24.7661L41.7966 24.3883C41.7306 24.1806 41.5613 23.9262 41.4203 23.8231C41.1872 23.6527 41.1894 23.6076 41.4438 23.3265C41.5976 23.1565 41.7236 22.8605 41.7236 22.6688C41.7236 22.247 41.1187 21.5132 40.7682 21.5098C40.6291 21.5085 40.4219 21.4481 40.3077 21.3756C40.048 21.2109 40.295 20.4762 40.7865 19.9515C41.0236 19.6983 41.0986 19.4442 41.0527 19.0504C40.9889 18.5042 41.2049 18.1292 41.5832 18.1292C41.6908 18.1292 41.9294 18.0023 42.1136 17.8473C42.4398 17.5726 42.442 17.5737 42.1982 17.8875C42.0605 18.0647 41.9283 18.4444 41.9043 18.7313C41.8688 19.1569 41.9371 19.2877 42.2755 19.4419C42.5035 19.5458 42.6902 19.6917 42.6902 19.766C42.6902 19.8404 42.7966 19.9013 42.9268 19.9013C43.2304 19.9013 43.064 19.4173 42.6605 19.1269C42.3066 18.8722 42.2749 18.4514 42.6096 18.4514C42.7425 18.4514 42.8513 18.5239 42.8513 18.6125C42.8513 18.7011 42.9684 18.7736 43.1117 18.7736C43.2896 18.7736 43.3464 18.6751 43.2909 18.4628C43.2314 18.2355 43.2883 18.1579 43.5026 18.174C43.6637 18.1861 43.76 18.2535 43.7166 18.3237C43.6732 18.3939 43.7494 18.4514 43.8858 18.4514C44.0223 18.4514 44.1796 18.6333 44.2354 18.8555C44.2968 19.1005 44.4884 19.2978 44.7217 19.3563C45.1908 19.474 45.2198 19.673 44.7845 19.7869C44.5644 19.8444 44.4623 20.0066 44.4623 20.2985C44.4623 20.5682 44.5276 20.6854 44.6394 20.6163C44.7446 20.5513 44.7307 20.662 44.6052 20.8887C44.4889 21.0988 44.4168 21.3431 44.445 21.4317C44.5061 21.6242 44.5939 22.0286 44.611 22.197C44.6291 22.3743 45.1067 22.3447 45.1067 22.1662C45.1067 22.0828 45.0369 21.9715 44.9517 21.9188C44.8525 21.8575 44.8525 21.6764 44.9517 21.4156C45.0369 21.1914 45.1067 20.7905 45.1067 20.5246C45.1067 20.2587 45.1859 19.8932 45.2827 19.7123C45.41 19.4744 45.41 19.3347 45.2827 19.2074C45.1859 19.1106 45.1067 18.927 45.1067 18.7994C45.1067 18.6718 44.9988 18.487 44.8669 18.3886C44.6947 18.2602 44.6546 18.0431 44.7247 17.6189L44.8223 17.028L45.931 17.055C46.7127 17.0741 47.0397 17.1431 47.0398 17.2891C47.0398 17.4414 47.1195 17.4535 47.341 17.3349C47.5691 17.2129 47.6334 17.018 47.606 16.532C47.5817 16.1004 47.6446 15.8616 47.7983 15.8027C47.924 15.7544 47.9867 15.6499 47.9375 15.5704C47.8099 15.3638 48.8481 14.9072 49.4455 14.9072C49.7451 14.9072 49.9874 14.8091 50.0425 14.6655C50.1456 14.3969 50.5841 14.3317 50.5841 14.585C50.5841 14.6736 50.7146 14.7461 50.8742 14.7461C51.2342 14.7461 52.031 14.386 52.0327 14.2225C52.0334 14.156 52.2027 14.1017 52.4088 14.1017C52.73 14.1017 52.7739 14.0354 52.7158 13.639C52.6295 13.0515 53.4061 12.2255 53.7648 12.5232C53.9421 12.6704 53.9437 12.7289 53.7734 12.8389C53.6061 12.947 53.6126 13.0056 53.8061 13.1326C53.939 13.2199 54.1383 13.2923 54.2491 13.2937C54.3599 13.2951 54.4505 13.4412 54.4505 13.6184C54.4505 13.995 54.7408 14.0501 54.8755 13.6989C55.0191 13.3247 55.7312 13.4129 56.3445 13.8807C56.771 14.2059 56.8492 14.3374 56.682 14.4476C56.5049 14.5643 56.5169 14.6315 56.7462 14.8072C57.1511 15.1175 57.0999 15.3362 56.4656 16.0054C56.1563 16.3317 55.9026 16.6739 55.9018 16.7658C55.901 16.8576 55.5742 17.2782 55.1754 17.7002C54.7767 18.1223 54.4528 18.5546 54.4556 18.6609C54.4585 18.7693 54.5547 18.7303 54.6747 18.5722C54.7924 18.4171 55.039 18.2903 55.2226 18.2903C55.4189 18.2903 55.6001 18.1527 55.6624 17.9564C55.7249 17.7596 55.8597 17.6576 55.9908 17.7079C56.1132 17.7549 56.3189 17.6876 56.4481 17.5585C56.7532 17.2534 57.2903 17.2572 57.4085 17.5653C57.4595 17.6982 57.5803 17.807 57.6769 17.807C57.7736 17.807 57.8127 17.7424 57.7639 17.6635C57.6338 17.4529 58.3994 17.0015 58.8866 17.0015C59.1175 17.0015 59.4153 17.1102 59.5482 17.2431C59.8595 17.5545 60.6195 17.552 61.2274 17.2376C61.635 17.0268 61.6802 16.9433 61.5342 16.6704C61.2973 16.2279 61.4692 16.029 61.9972 16.1346C62.2935 16.1939 62.5136 16.1387 62.6535 15.9701C62.8433 15.7415 62.9107 15.7498 63.3394 16.0551C63.6139 16.2506 63.7785 16.488 63.729 16.617C63.6799 16.7449 63.7444 16.8404 63.8799 16.8404C64.1507 16.8404 64.1964 17.0942 63.9528 17.2448C63.7172 17.3903 63.9449 17.6844 64.2134 17.5814C64.36 17.5251 64.4387 17.6071 64.4387 17.816C64.4387 18.0149 64.6073 18.2062 64.8817 18.3187C65.5096 18.5759 65.9814 18.5577 65.9113 18.2789C65.8794 18.1522 65.8286 17.8114 65.7984 17.5215C65.7523 17.0789 65.7846 17.0174 66.0001 17.138C66.3701 17.3451 66.8552 17.1732 66.8552 16.835C66.8552 16.4647 67.1574 16.3608 67.6248 16.5705C68.0882 16.7783 68.5409 16.4451 68.1427 16.1893C67.9429 16.0609 67.9617 16.0186 68.2541 15.9383C68.5687 15.852 68.586 15.7967 68.4185 15.4148C68.3154 15.1799 68.1647 14.9407 68.0835 14.8832C68.0024 14.8256 67.9943 14.6444 68.0656 14.4804C68.1368 14.3164 68.1876 14.1396 68.1783 14.0875C68.169 14.0355 68.4656 13.8377 68.8374 13.6481C69.3999 13.3612 69.5221 13.3433 69.5655 13.5414C69.6288 13.8307 69.9098 13.8588 69.9322 13.5781C69.941 13.4673 69.9987 13.558 70.0603 13.7795C70.234 14.4039 70.4747 14.2555 70.5299 13.4899C70.5708 12.9223 70.6525 12.7699 70.9834 12.6441C71.5758 12.4189 71.7215 12.4543 71.6127 12.7971C71.5228 13.0802 71.5668 13.0919 72.1927 12.9513C72.5652 12.8676 72.9778 12.8405 73.1096 12.8911C73.3739 12.9925 74.1047 12.391 74.1047 12.0722C74.1047 11.9615 74.2924 11.6479 74.5218 11.3753C74.8686 10.9632 75.0558 10.8797 75.6323 10.8797C76.1 10.8797 76.3558 10.9583 76.4184 11.1213C76.618 11.6416 77.87 11.2435 77.8005 10.6819C77.7459 10.2414 78.0337 9.7202 78.4105 9.57694C78.6279 9.49428 78.8891 9.20595 78.9909 8.93621C79.1226 8.58746 79.2579 8.46718 79.4595 8.51989C79.6154 8.56066 79.7874 8.52201 79.8418 8.434C79.8962 8.34599 80.0749 8.30907 80.2388 8.35194C80.4028 8.39482 80.6209 8.32864 80.7237 8.20488C80.9903 7.88364 80.6292 7.49656 80.063 7.49656C79.4281 7.49656 79.3613 7.11131 79.8967 6.53819C80.1492 6.26784 80.3226 6.04665 80.2821 6.04665C80.2415 6.04665 80.3393 5.81405 80.4994 5.52976C80.9409 4.74561 81.5641 4.24979 83.0458 3.50404C83.3116 3.37025 83.6514 3.15555 83.8009 3.02693C83.9504 2.89831 84.1421 2.83601 84.227 2.88849C84.3119 2.94096 84.4258 2.86805 84.4802 2.72645C84.5402 2.57003 84.6803 2.5079 84.8372 2.56811C85.0286 2.64155 85.069 2.5983 84.9933 2.40101C84.9031 2.1661 85.0051 2.14516 85.8614 2.22281C86.6291 2.29242 86.8317 2.26353 86.8317 2.08442C86.8317 1.95035 86.6674 1.85804 86.4289 1.85804C85.9613 1.85804 85.9304 1.76965 86.2771 1.42301C86.4151 1.28501 86.4913 1.07641 86.4464 0.959465C86.3995 0.83721 86.5154 0.700107 86.7191 0.6369C86.9139 0.576437 87.2727 0.38655 87.5163 0.214932C87.9822 -0.113185 87.9649 -0.126623 88.0238 0.609512C88.0327 0.720269 88.1124 0.865261 88.201 0.931715C88.3022 1.00763 88.274 1.10916 88.1251 1.20488C87.9948 1.28867 87.9267 1.39577 87.9738 1.44289C88.0594 1.52848 88.6581 1.66236 89.0563 1.68497C89.1752 1.69172 89.2164 1.77919 89.1507 1.88542C89.0724 2.01215 89.122 2.04019 89.3023 1.97102C89.4773 1.90385 89.5704 1.95026 89.5704 2.10475C89.5704 2.23487 89.4979 2.34134 89.4093 2.34134C89.3207 2.34134 89.2632 2.39572 89.2815 2.46217C89.2999 2.52862 89.0996 2.80782 88.8365 3.08261C88.4499 3.48644 88.3053 3.54889 88.0826 3.40836C87.866 3.27176 87.7553 3.30278 87.5661 3.55315C87.4336 3.72841 87.3229 4.03491 87.3201 4.23427C87.3162 4.50978 87.2206 4.59675 86.9217 4.59675C86.7054 4.59675 86.4837 4.52425 86.4289 4.43565C86.2807 4.19586 86.0737 4.24046 85.9601 4.53667C85.8355 4.86119 86.3224 5.26008 86.7033 5.1456C86.9011 5.08613 87.0707 5.24574 87.3118 5.71829C87.6776 6.43534 87.5858 6.85695 86.9951 7.17312C86.7966 7.27935 86.7192 7.43589 86.783 7.60217C86.8755 7.84327 86.8988 7.84308 87.0767 7.59971C87.183 7.45437 87.4251 7.33545 87.6146 7.33545C87.8042 7.33545 87.9594 7.25807 87.9594 7.1635C87.9594 6.963 88.6308 7.13447 88.785 7.37437C88.8483 7.47284 88.9254 7.46669 88.9927 7.3578C89.1296 7.13629 90.259 7.16852 90.4087 7.39821C90.5419 7.60242 89.9336 8.30206 89.6228 8.30206C89.3573 8.30206 89.3407 8.57456 89.601 8.66133C89.7203 8.7011 89.8091 9.16928 89.8359 9.90044C89.8597 10.5468 89.9567 11.3109 90.0516 11.5984C90.1465 11.886 90.2524 12.2678 90.2869 12.447C90.3214 12.6261 90.4222 13.0355 90.5109 13.3566C90.6637 13.9101 90.652 13.9406 90.2865 13.9406C89.8065 13.9406 89.4178 14.6292 89.382 15.5432C89.3602 16.0993 89.3222 16.1633 89.1152 15.9925C88.9054 15.8193 88.8858 15.8827 88.9651 16.4779C89.0316 16.9763 89 17.1626 88.8489 17.1626C88.5026 17.1626 88.4288 17.8459 88.7301 18.2631C88.8821 18.4737 89.1878 18.9821 89.4093 19.393C89.8105 20.1372 90.3759 20.4886 90.3759 19.9936C90.3759 19.8542 90.4931 19.7402 90.6363 19.7402C90.8138 19.7402 90.871 19.8387 90.8159 20.0496C90.7556 20.28 90.8433 20.3895 91.1595 20.4787C91.3931 20.5446 91.646 20.5841 91.7216 20.5666C91.7973 20.549 91.9966 20.5782 92.1647 20.6315C92.5263 20.7463 92.577 21.1901 92.2285 21.1901C92.0956 21.1901 91.9869 21.3253 91.9869 21.4906C91.9869 21.9232 92.6001 22.64 92.9702 22.64C93.3481 22.64 93.5532 23.0714 93.2971 23.3274C93.1967 23.4278 93.1146 23.7753 93.1146 24.0996C93.1146 24.5338 93.2164 24.7656 93.501 24.9794C93.8684 25.2553 93.8767 25.3 93.6693 25.888C93.4956 26.3802 93.4928 26.5064 93.6554 26.5064C93.923 26.5064 94.5645 27.9852 94.5645 28.6022C94.5645 29.2357 94.1492 29.2425 93.5604 28.6187C93.3189 28.3628 92.8128 27.9926 92.4358 27.7961C91.0926 27.096 88.6038 24.7981 88.6038 24.258C88.6038 23.8286 88.2673 23.1233 88.0624 23.1233C87.9609 23.1233 87.9711 23.0472 88.0882 22.93C88.3742 22.6441 88.3374 20.9537 88.0399 20.7068C87.907 20.5965 87.7983 20.3744 87.7983 20.2133C87.7983 20.0521 87.7223 19.8733 87.6293 19.8159C87.5116 19.7431 87.5118 19.6495 87.6301 19.507C87.7511 19.3612 87.7199 19.0871 87.5211 18.5508C87.2892 17.925 87.2771 17.7434 87.4491 17.4681C87.6836 17.0926 87.5857 16.9038 86.7781 16.1739C86.4871 15.9109 86.3081 15.5888 86.3081 15.3281C86.3081 14.8423 86.0757 14.7826 85.7671 15.1891C85.4684 15.5826 85.4919 15.8325 85.8651 16.2331C86.0475 16.4289 86.1873 16.8016 86.1873 17.0923C86.1873 17.3746 86.2315 17.8269 86.2856 18.0974C86.3648 18.4934 86.3327 18.5817 86.1206 18.5505C85.9757 18.5293 85.7461 18.3533 85.6104 18.1594C85.3251 17.7521 85.0596 17.6987 85.0596 18.0486C85.0596 18.1815 84.944 18.2903 84.8028 18.2903C84.6616 18.2903 84.5082 18.4353 84.4618 18.6125C84.4155 18.7897 84.3193 18.9347 84.2481 18.9347C84.0197 18.9347 83.8921 19.901 84.0892 20.1384C84.1914 20.2616 84.3166 20.7842 84.3674 21.2998C84.4181 21.8154 84.5636 22.4431 84.6907 22.6947C84.9126 23.1343 84.9338 23.1412 85.2323 22.8711C85.4142 22.7065 85.5429 22.6676 85.5429 22.7772C85.5429 22.8801 85.3616 23.1219 85.1401 23.3145C84.9186 23.5071 84.7374 23.7653 84.7374 23.8882C84.7374 24.035 84.6316 24.078 84.4287 24.0136C84.259 23.9598 84.0777 23.9843 84.0258 24.0682C83.974 24.1521 83.7866 24.1828 83.6095 24.1365C83.3856 24.078 83.2875 24.1317 83.2875 24.3128C83.2875 24.456 83.2331 24.5646 83.1666 24.5541C82.6877 24.4785 82.4646 24.6196 82.378 25.0529C82.2793 25.5464 82.0585 25.7992 81.4579 26.1068C81.268 26.204 81.1231 26.4088 81.1359 26.5618C81.152 26.7541 81.1021 26.7925 80.9741 26.6862C80.8483 26.5818 80.5973 26.7082 80.1913 27.0802C79.2875 27.9085 79.0466 28.3522 79.1632 28.974C79.2185 29.2687 79.2091 29.5644 79.1424 29.6312C79.0756 29.6979 79.008 30.1134 78.992 30.5545C78.9761 30.9956 78.8856 31.4498 78.7908 31.564C78.6961 31.6781 78.6257 32.2445 78.6344 32.8225C78.643 33.4006 78.5699 34.0236 78.4717 34.2069C78.3736 34.3902 78.2933 34.722 78.2933 34.9441C78.2933 35.1662 78.2208 35.3927 78.1322 35.4475C78.0436 35.5022 77.9711 35.6878 77.9711 35.8597C77.9711 36.0984 78.0833 36.1724 78.4449 36.1724C78.7055 36.1724 78.9632 36.1005 79.0175 36.0125C79.0721 35.9242 79.2905 36.0504 79.5053 36.2945C79.817 36.6487 79.8952 36.6804 79.8993 36.4544C79.9054 36.1118 80.2265 36.0723 80.2265 36.4141C80.2265 36.547 80.3353 36.6557 80.4682 36.6557C80.6011 36.6557 80.7098 36.547 80.7098 36.4141C80.7098 36.2812 80.8186 36.1724 80.9515 36.1724C81.2267 36.1724 81.2793 35.7614 81.0242 35.6037C80.7112 35.4103 81.222 35.0105 81.6673 35.1005C82.6437 35.2977 83.142 35.4554 83.137 35.5656C83.1341 35.6306 83.3905 35.9426 83.7068 36.2589C84.0686 36.6207 84.2464 36.9267 84.186 37.0839C84.0588 37.4154 84.3938 38.5053 84.7358 38.8723C84.8856 39.0331 85.202 39.5507 85.439 40.0226C85.8686 40.8778 85.8697 40.8896 85.7977 43.8025C85.7213 46.8895 85.6779 47.4227 85.4765 47.7487C85.4077 47.86 85.3939 48.1203 85.4458 48.3272C85.5678 48.8131 84.9938 50.1166 84.4377 50.6164C84.0834 50.935 83.8987 50.9833 83.3311 50.9063L82.6499 50.8138L82.5453 51.4676C82.4623 51.9869 82.3724 52.1214 82.1084 52.1214C81.7916 52.1214 81.7898 52.1112 82.0702 51.9062ZM89.8262 43.8927C89.5832 43.62 89.424 43.2938 89.4723 43.1678C89.5207 43.0417 89.4953 42.9386 89.416 42.9386C89.2516 42.9386 88.7649 42.0267 88.7649 41.7188C88.7649 41.6067 88.5197 41.3635 88.22 41.1783C87.9203 40.993 87.5802 40.6065 87.4643 40.3193C87.3483 40.0322 87.0073 39.471 86.7064 39.0722C86.4055 38.6735 86.0605 38.1117 85.9398 37.8237C85.7935 37.4745 85.6104 37.3001 85.39 37.3001C85.0594 37.3001 84.4152 36.7808 84.4152 36.5144C84.4152 36.4366 84.3064 36.2827 84.1735 36.1724C84.0406 36.0621 83.9319 35.8596 83.9319 35.7224C83.9319 35.5851 83.8079 35.3358 83.6563 35.1684C83.4421 34.9317 83.4263 34.8359 83.5851 34.7377C83.8724 34.5601 83.6399 33.7337 83.2759 33.6385C83.1088 33.5948 83.024 33.4681 83.0742 33.3373C83.2085 32.9872 83.4406 33.0697 83.6156 33.5299C83.7031 33.7599 83.9188 33.9859 84.0949 34.0319C84.271 34.078 84.4152 34.2183 84.4152 34.3436C84.4152 34.469 84.542 34.6168 84.6971 34.672C85.1908 34.848 85.3962 35.0748 85.2366 35.2675C85.0452 35.4986 85.4719 36.0243 86.0664 36.2899C86.3101 36.3987 86.5095 36.5618 86.5095 36.6523C86.5095 36.7428 86.5889 36.8168 86.6861 36.8168C86.7832 36.8168 87.3088 37.2082 87.8541 37.6865C88.3993 38.1648 89.0992 38.6663 89.4093 38.801L89.9731 39.046L89.2028 39.0591C88.2652 39.0751 88.1669 39.2555 88.5235 40.3058C88.8818 41.3612 89.3785 42.1321 89.7043 42.1383C89.8522 42.1411 90.1143 42.2502 90.2869 42.3807C90.4594 42.5112 90.7192 42.5803 90.8641 42.5343C91.2133 42.4235 91.6271 43.2461 91.3181 43.437C91.2071 43.5056 91.0506 43.5213 90.9705 43.4717C90.8904 43.4222 90.9231 43.3193 91.0434 43.2432C91.2042 43.1413 91.2087 43.104 91.0605 43.1022C90.7129 43.0979 90.2384 43.6834 90.3924 43.9265C90.7907 44.5552 90.3955 44.5316 89.8262 43.8927ZM89.0998 43.3548C89.0928 43.185 89.1309 43.0898 89.1844 43.1434C89.2379 43.1969 89.2437 43.3359 89.1971 43.4521C89.1457 43.5807 89.1075 43.5425 89.0998 43.3548ZM93.5979 42.6659C93.5979 42.2078 93.6772 41.9761 93.8578 41.9068C94.0796 41.8217 94.1014 41.8961 94.0064 42.4131C93.8433 43.3008 93.5979 43.4526 93.5979 42.6659ZM94.1931 41.5469C93.9663 41.3202 94.0718 39.9158 94.3228 39.8195C94.4557 39.7685 94.5645 39.6157 94.5645 39.48C94.5645 39.3443 94.637 39.2333 94.7256 39.2333C94.9453 39.2333 94.9284 39.4163 94.6466 40.0907C94.5146 40.4067 94.4482 40.7736 94.499 40.9061C94.6071 41.1878 94.3573 41.7111 94.1931 41.5469ZM95.0591 38.3165C95.0529 38.0338 95.1203 37.7576 95.2089 37.7029C95.4021 37.5835 95.4021 38.0587 95.2089 38.5084C95.0922 38.78 95.0687 38.7498 95.0591 38.3165ZM95.5565 35.8502C95.5565 35.6287 95.5931 35.5381 95.6378 35.6488C95.6825 35.7596 95.6825 35.9408 95.6378 36.0516C95.5931 36.1624 95.5565 36.0717 95.5565 35.8502ZM79.5016 35.0447C79.4468 34.9561 79.4788 34.8836 79.5726 34.8836C79.6665 34.8836 79.7432 34.9561 79.7432 35.0447C79.7432 35.1333 79.7113 35.2058 79.6722 35.2058C79.6331 35.2058 79.5564 35.1333 79.5016 35.0447ZM94.9622 32.9423C94.8143 32.7029 94.9319 32.6182 95.1905 32.7779C95.329 32.8635 95.3455 32.9466 95.2372 33.0135C95.1453 33.0703 95.0215 33.0383 94.9622 32.9423ZM94.7256 31.8227C94.7256 31.7341 94.7981 31.6616 94.8867 31.6616C94.9753 31.6616 95.0478 31.7341 95.0478 31.8227C95.0478 31.9113 94.9753 31.9838 94.8867 31.9838C94.7981 31.9838 94.7256 31.9113 94.7256 31.8227ZM94.5511 30.9367C94.5375 30.8481 94.5359 30.7183 94.5476 30.6482C94.5593 30.5782 94.4988 30.3899 94.4131 30.2299C94.3076 30.0327 94.3173 29.879 94.4431 29.7531C94.6749 29.5213 94.9422 29.5082 94.8018 29.7355C94.7446 29.828 94.7706 29.9913 94.8595 30.0984C94.9697 30.2311 94.9502 30.4214 94.7985 30.6955C94.6761 30.9167 94.5648 31.0253 94.5511 30.9367ZM84.093 24.5022C84.093 24.4631 84.1655 24.3863 84.2541 24.3315C84.3427 24.2768 84.4152 24.3088 84.4152 24.4026C84.4152 24.4964 84.3427 24.5732 84.2541 24.5732C84.1655 24.5732 84.093 24.5412 84.093 24.5022ZM34.474 17.1626C34.474 16.8968 34.5465 16.6793 34.6351 16.6793C34.7237 16.6793 34.7962 16.8968 34.7962 17.1626C34.7962 17.4284 34.7237 17.6459 34.6351 17.6459C34.5465 17.6459 34.474 17.4284 34.474 17.1626ZM56.7985 16.5377C56.7486 16.4569 56.8161 16.3493 56.9485 16.2985C57.0809 16.2477 57.1892 16.272 57.1892 16.3526C57.1892 16.571 56.9029 16.7066 56.7985 16.5377ZM40.9411 15.8887C40.7791 15.7881 40.7714 15.7227 40.9116 15.6361C41.1326 15.4995 41.2986 15.6205 41.2168 15.8585C41.1832 15.9561 41.0695 15.9685 40.9411 15.8887ZM33.7846 15.4041C33.4359 14.9891 33.3775 14.8221 33.5207 14.6496C33.7608 14.3603 33.5711 13.6184 33.257 13.6184C33.0666 13.6184 33.049 13.5506 33.1775 13.3107C33.2809 13.1174 33.4544 13.0324 33.6441 13.082C33.8277 13.13 34.122 12.998 34.3947 12.7453C34.9103 12.2675 35.096 12.2379 35.5307 12.5645C35.8312 12.7903 35.816 12.824 35.1395 13.4313C34.5024 14.0031 34.4259 14.1521 34.334 15.0001L34.2324 15.937L33.7846 15.4041ZM29.7484 15.2831C29.5614 15.0961 29.6309 14.9239 29.9656 14.7448C30.2243 14.6063 30.3108 14.6248 30.3918 14.8359C30.5263 15.1864 30.0103 15.545 29.7484 15.2831ZM67.2989 13.2559C67.1127 12.7494 67.5617 12.5003 68.2114 12.7496C68.5764 12.8896 68.5268 13.0558 68.0559 13.2703C67.5336 13.5083 67.3908 13.5056 67.2989 13.2559ZM35.9239 12.4907C35.807 12.2722 35.8052 12.1685 35.9183 12.1685C36.01 12.1685 36.0669 12.0778 36.0448 11.9671C36.0223 11.8546 36.1289 11.7866 36.2864 11.8131C36.4415 11.8391 36.5683 11.7935 36.5683 11.7118C36.5683 11.63 36.7858 11.4731 37.0516 11.363C37.3175 11.2529 37.5349 11.1149 37.5349 11.0564C37.5349 10.9978 37.722 10.9345 37.9507 10.9155C38.1794 10.8966 38.4836 10.8155 38.6269 10.7354C38.7823 10.6484 39.0423 10.6485 39.2718 10.7358C39.4833 10.8162 39.7259 10.839 39.8109 10.7864C39.896 10.7338 40.0725 10.7796 40.2032 10.888C40.3607 11.0187 40.7416 11.0542 41.333 10.9931C42.0322 10.921 42.2449 10.9525 42.3165 11.139C42.3667 11.2698 42.3615 11.4231 42.305 11.4796C42.1496 11.635 40.6247 11.8026 40.4347 11.6852C40.3434 11.6287 39.8891 11.646 39.4253 11.7237C38.9616 11.8014 38.376 11.8855 38.1241 11.9106C37.8722 11.9357 37.6184 12.0222 37.5602 12.1027C37.502 12.1832 37.2732 12.2685 37.0516 12.2924C36.8301 12.3162 36.5684 12.4431 36.47 12.5743C36.2325 12.8911 36.1298 12.8754 35.9239 12.4907ZM66.6941 12.7418C66.6941 12.7028 66.7666 12.626 66.8552 12.5712C66.9438 12.5165 67.0163 12.5484 67.0163 12.6423C67.0163 12.7361 66.9438 12.8129 66.8552 12.8129C66.7666 12.8129 66.6941 12.7809 66.6941 12.7418ZM4.39873 12.4573C4.30987 12.3427 4.19195 12.1222 4.13667 11.9671C4.07771 11.8017 3.87151 11.6852 3.63787 11.6852C3.4188 11.6852 3.19297 11.6098 3.13601 11.5176C3.06886 11.409 3.17879 11.3868 3.44871 11.4545C3.79245 11.5408 3.86496 11.5028 3.86496 11.2366C3.86496 10.6551 4.65612 10.6606 4.66799 11.2421C4.66935 11.3086 4.78358 11.363 4.92183 11.363C5.11372 11.363 5.16138 11.5056 5.12321 11.9658C5.07059 12.6002 4.70298 12.8496 4.39873 12.4573ZM65.2874 12.2609C64.8939 12.0789 64.5601 11.3316 64.7044 10.9557C64.8127 10.6735 64.9911 10.658 65.4297 10.8927C65.8126 11.0977 66.0314 10.958 65.757 10.6837C65.4502 10.3768 65.5276 10.3177 66.2797 10.2839C66.9999 10.2516 67.4715 10.5342 67.2623 10.8726C67.0989 11.1371 66.567 11.0692 66.3706 10.7588C66.25 10.5683 66.2123 10.5552 66.2545 10.7186C66.2887 10.8515 66.4769 11.0407 66.6725 11.1391L67.0283 11.3181L66.5793 11.618C66.3323 11.783 66.067 11.8988 65.9897 11.8755C65.9123 11.8522 65.8896 11.9388 65.9392 12.068C66.0573 12.3758 65.7391 12.4699 65.2874 12.2609ZM52.3441 11.2665C52.528 10.9234 52.6784 10.5511 52.6784 10.439C52.6784 10.327 52.7509 10.2353 52.8395 10.2353C52.9281 10.2353 53.0006 10.3078 53.0006 10.3964C53.0006 10.485 53.0783 10.5575 53.1732 10.5575C53.4537 10.5575 53.8442 11.0314 53.755 11.2636C53.7097 11.3817 53.4671 11.5231 53.2158 11.5778C52.9645 11.6326 52.5904 11.7253 52.3844 11.7838L52.0098 11.8902L52.3441 11.2665ZM51.0271 10.6264C50.4763 10.3276 50.4351 9.71345 50.9421 9.35835C51.3993 9.03809 51.6116 9.03863 51.4884 9.35975C51.4151 9.55073 51.4663 9.58823 51.6992 9.51429C52.0673 9.39746 52.2699 9.66132 52.104 10.0416C52.0383 10.1924 52.0002 10.4427 52.0193 10.5977C52.0625 10.9466 51.6398 10.9588 51.0271 10.6264ZM67.6052 10.1122C67.5127 9.95938 67.8324 9.68009 68.144 9.64145C68.2769 9.62497 68.5663 9.55757 68.787 9.49167C69.1763 9.37546 69.1809 9.38311 68.9401 9.74576C68.6981 10.1103 67.7599 10.3678 67.6052 10.1122ZM50.0471 9.48346C49.8514 9.28778 49.9358 9.11617 50.1813 9.2104C50.3142 9.2614 50.423 9.36787 50.423 9.447C50.423 9.61589 50.201 9.63742 50.0471 9.48346ZM50.3648 8.86622C50.2375 8.53441 50.521 7.97986 50.818 7.97986C50.9404 7.97986 51.0729 7.88924 51.1124 7.77848C51.2085 7.50959 51.3423 7.64985 51.4586 8.14129C51.5785 8.64756 51.4202 8.8922 50.8862 9.02622C50.5784 9.10348 50.4395 9.06087 50.3648 8.86622ZM78.7766 8.07764C78.7766 8.04282 78.8854 7.9726 79.0183 7.9216C79.1512 7.8706 79.2599 7.89909 79.2599 7.98491C79.2599 8.07074 79.1512 8.14096 79.0183 8.14096C78.8854 8.14096 78.7766 8.11247 78.7766 8.07764ZM42.762 5.87151C42.7025 5.77519 42.7169 5.63322 42.7941 5.55602C42.9847 5.36549 43.404 5.64284 43.2651 5.86754C43.1244 6.09524 42.9014 6.097 42.762 5.87151ZM43.6568 5.88555C43.6568 5.79695 43.806 5.72445 43.9885 5.72445C44.1709 5.72445 44.2754 5.79695 44.2206 5.88555C44.1658 5.97416 44.0166 6.04665 43.8889 6.04665C43.7612 6.04665 43.6568 5.97416 43.6568 5.88555ZM42.2885 4.75969C42.2321 4.66837 42.2968 4.64137 42.4401 4.69638C42.7192 4.80348 42.7703 4.91895 42.5386 4.91895C42.4552 4.91895 42.3427 4.84728 42.2885 4.75969ZM40.3542 4.11345C39.8577 3.98711 39.9499 3.93219 40.7059 3.90402C40.9437 3.89516 41.1672 3.9749 41.2027 4.08123C41.2733 4.29305 41.0877 4.3001 40.3542 4.11345ZM40.0588 3.52275C39.9998 3.46367 39.9514 3.36172 39.9514 3.29618C39.9514 3.14129 40.5743 3.30383 40.6884 3.48849C40.7897 3.65238 40.2195 3.6834 40.0588 3.52275ZM79.61 2.90198C79.3416 2.31281 79.3744 2.05544 79.7432 1.85804C80.0989 1.66769 80.111 1.69166 80.0686 2.50244C80.0294 3.25009 79.8427 3.41274 79.61 2.90198Z" fill="#FF6B00"/>
</svg>
